<svg width="4382" height="1156" xmlns="http://www.w3.org/2000/svg" xmlns:xlink="http://www.w3.org/1999/xlink" xml:space="preserve" overflow="hidden"><g transform="translate(-165 -663)"><path d="M753.157 1460.99 795.583 1503.48 276.239 1503.48 327.075 1462.42 753.157 1462.42ZM445.282 1208.94C434.049 1225.22 418.611 1250.7 418.844 1265.79 419.028 1278.6 433.686 1298.8 439.205 1323.6L434.612 1323.6C429.211 1296.13 406.517 1261.15 385.939 1267.51 361.625 1275.03 363.772 1301.6 372.963 1317.5 377.954 1309.02 383.701 1298.99 397.384 1299.48 410.299 1299.96 416.67 1311.33 421.149 1323.6 417.501 1323.6 414.569 1326.24 414.569 1329.52 414.569 1332.8 417.501 1335.43 421.149 1335.43L423.891 1335.43C424.782 1344.11 423.393 1352.78 418.287 1354.29 411.668 1356.26 407.785 1352.25 403.644 1345.29 400.992 1352.22 398.273 1371.84 412.867 1375.73 426.832 1379.45 435.492 1363.84 435.841 1335.43L441.042 1335.43C441.201 1337.44 441.291 1339.47 441.296 1341.52 441.306 1357.19 433.317 1367.75 433.064 1374.33 432.805 1380.97 439.797 1388.63 445.317 1392.81 450.782 1388.63 457.76 1380.97 457.501 1374.33 457.247 1367.75 449.259 1357.19 449.269 1341.52 449.274 1339.47 449.363 1337.44 449.523 1335.43L454.32 1335.43C454.669 1363.84 463.349 1379.45 477.309 1375.73 491.902 1371.84 489.169 1352.22 486.517 1345.29 482.376 1352.25 478.494 1356.26 471.874 1354.29 466.768 1352.78 465.379 1344.11 466.27 1335.43L469.486 1335.43C473.128 1335.43 476.065 1332.8 476.065 1329.52 476.065 1326.24 473.128 1323.6 469.486 1323.6L469.013 1323.6C473.492 1311.33 479.877 1299.96 492.793 1299.48 506.475 1298.99 512.208 1309.02 517.195 1317.5 526.387 1301.6 528.553 1275.03 504.24 1267.51 483.66 1261.15 460.95 1296.13 455.55 1323.6L451.359 1323.6C456.879 1298.8 471.536 1278.6 471.72 1265.79 471.954 1250.7 456.515 1225.22 445.282 1208.94ZM334.461 1041.7 712.188 1419.96 334.461 1419.96ZM243.812 950.924 292.066 999.247 292.066 1436.15 243.812 1475.13ZM165 872 201.417 908.469 201.417 1545.93 202.277 1545.93 243.812 1545.93 837.978 1545.93 870 1578 165 1578Z" fill-rule="evenodd"/><path d="M3667.18 1419.71 4092.87 1419.71 4249 1575.29 3810.64 1575.29 3816.98 1568.97 3667.18 1419.71ZM3181.48 1419.71 3607.17 1419.71 3763.3 1575.29 3337.61 1575.29 3181.48 1419.71ZM2695.78 1419.71 3121.47 1419.71 3277.6 1575.29 2851.91 1575.29 2695.78 1419.71ZM2210.08 1419.71 2635.77 1419.71 2791.9 1575.29 2366.21 1575.29 2210.08 1419.71ZM1724.38 1419.71 2150.06 1419.71 2306.2 1575.29 1880.51 1575.29 1724.38 1419.71ZM1238.68 1419.71 1664.36 1419.71 1820.5 1575.29 1394.81 1575.29 1238.68 1419.71ZM774.133 1419.71 1178.66 1419.71 1334.8 1575.29 930.266 1575.29 774.133 1419.71ZM665.438 1418C665.435 1418.57 665.432 1419.14 665.43 1419.71L662.026 1573.86C662.017 1574.91 662.009 1575.95 662 1577L665.438 1418Z" fill-rule="evenodd"/><text font-family="Noto Sans JP Black,Noto Sans JP Black_MSFontService,sans-serif" font-weight="900" font-size="550" transform="matrix(1 0 0 1 722.198 1358)">MY HISTORY</text><text font-family="Noto Sans JP Black,Noto Sans JP Black_MSFontService,sans-serif" font-weight="900" font-size="550" transform="matrix(1 0 0 1 4090.95 1358)"> </text><path d="M474 1483C474 1477.48 478.477 1473 484 1473 489.523 1473 494 1477.48 494 1483 494 1488.52 489.523 1493 484 1493 478.477 1493 474 1488.52 474 1483Z" fill="#FFFFFF" fill-rule="evenodd"/><path d="M529 1483C529 1477.48 533.477 1473 539 1473 544.523 1473 549 1477.48 549 1483 549 1488.52 544.523 1493 539 1493 533.477 1493 529 1488.52 529 1483Z" fill="#FFFFFF" fill-rule="evenodd"/><path d="M584 1483C584 1477.48 588.477 1473 594 1473 599.523 1473 604 1477.48 604 1483 604 1488.52 599.523 1493 594 1493 588.477 1493 584 1488.52 584 1483Z" fill="#FFFFFF" fill-rule="evenodd"/><path d="M639 1483C639 1477.48 643.477 1473 649 1473 654.523 1473 659 1477.48 659 1483 659 1488.52 654.523 1493 649 1493 643.477 1493 639 1488.52 639 1483Z" fill="#FFFFFF" fill-rule="evenodd"/><path d="M694 1483C694 1477.48 698.477 1473 704 1473 709.523 1473 714 1477.48 714 1483 714 1488.52 709.523 1493 704 1493 698.477 1493 694 1488.52 694 1483Z" fill="#FFFFFF" fill-rule="evenodd"/><path d="M269 1034C274.523 1034 279 1038.48 279 1044 279 1049.52 274.523 1054 269 1054 263.477 1054 259 1049.52 259 1044 259 1038.48 263.477 1034 269 1034Z" fill="#FFFFFF" fill-rule="evenodd"/><path d="M269 1089C274.523 1089 279 1093.48 279 1099 279 1104.52 274.523 1109 269 1109 263.477 1109 259 1104.52 259 1099 259 1093.48 263.477 1089 269 1089Z" fill="#FFFFFF" fill-rule="evenodd"/><path d="M269 1144C274.523 1144 279 1148.48 279 1154 279 1159.52 274.523 1164 269 1164 263.477 1164 259 1159.52 259 1154 259 1148.48 263.477 1144 269 1144Z" fill="#FFFFFF" fill-rule="evenodd"/><path d="M269 1199C274.523 1199 279 1203.48 279 1209 279 1214.52 274.523 1219 269 1219 263.477 1219 259 1214.52 259 1209 259 1203.48 263.477 1199 269 1199Z" fill="#FFFFFF" fill-rule="evenodd"/><path d="M269 1254C274.523 1254 279 1258.48 279 1264 279 1269.52 274.523 1274 269 1274 263.477 1274 259 1269.52 259 1264 259 1258.48 263.477 1254 269 1254Z" fill="#FFFFFF" fill-rule="evenodd"/></g></svg>