<svg width="4148" height="1152" xmlns="http://www.w3.org/2000/svg" xmlns:xlink="http://www.w3.org/1999/xlink" xml:space="preserve" overflow="hidden"><defs><clipPath id="clip0"><rect x="126" y="691" width="4148" height="1152"/></clipPath></defs><g clip-path="url(#clip0)" transform="translate(-126 -691)"><rect x="126" y="696" width="4148" height="1142" fill="#FFFFFF"/><path d="M166.422 1572.54 166.422 868.983 869.979 1572.54Z" fill-rule="evenodd" transform="matrix(1.00092 0 0 1 -8.65654 30.2941)"/><path d="M208.116 1499.99 321.9 1408.22 348.452 1441.15 234.668 1532.91Z" fill="#FFFFFF" fill-rule="evenodd" transform="matrix(1.00092 0 0 1 -8.65654 30.2941)"/><path d="M203.294 864 245.149 864 245.149 1540.65 203.294 1540.65Z" fill="#FFFFFF" transform="matrix(1.00092 0 0 1 -8.65654 30.2941)"/><path d="M292.983 768.332 335.834 768.332 335.834 1443.99 292.983 1443.99Z" fill="#FFFFFF" transform="matrix(1.00092 0 0 1 -8.65654 30.2941)"/><path d="M659.709 1414.09 4257.22 1414.09 4257.22 1569.55 659.709 1569.55Z" transform="matrix(1.00092 0 0 1 -8.65654 30.2941)"/><path d="M165.099 808.485 940.906 1584.29 911 1614.2 135.193 838.391Z" fill="#FFFFFF" fill-rule="evenodd" transform="matrix(1.00092 0 0 1 -8.65654 30.2941)"/><path d="M321.882 1415.09 753.384 1415.09 753.384 1456.94 321.882 1456.94Z" fill="#FFFFFF" transform="matrix(1.00092 0 0 1 -8.65654 30.2941)"/><path d="M204.291 1497.8 841.08 1497.8 841.08 1540.65 204.291 1540.65Z" fill="#FFFFFF" transform="matrix(1.00092 0 0 1 -8.65654 30.2941)"/><path d="M1197.97 1378.36 1418.05 1598.43 1388.13 1628.34 1168.06 1408.27Z" fill="#FFFFFF" fill-rule="evenodd" transform="matrix(1.00092 0 0 1 -8.65654 30.2941)"/><path d="M1675.1 1371.41 1895.18 1591.48 1865.27 1621.39 1645.2 1401.31Z" fill="#FFFFFF" fill-rule="evenodd" transform="matrix(1.00092 0 0 1 -8.65654 30.2941)"/><path d="M2152.25 1364.46 2372.31 1584.53 2342.41 1614.43 2122.34 1394.37Z" fill="#FFFFFF" fill-rule="evenodd" transform="matrix(1.00092 0 0 1 -8.65654 30.2941)"/><path d="M2629.38 1357.52 2849.45 1577.58 2819.54 1607.49 2599.47 1387.42Z" fill="#FFFFFF" fill-rule="evenodd" transform="matrix(1.00092 0 0 1 -8.65654 30.2941)"/><path d="M3106.51 1350.56 3326.58 1570.63 3296.67 1600.53 3076.61 1380.47Z" fill="#FFFFFF" fill-rule="evenodd" transform="matrix(1.00092 0 0 1 -8.65654 30.2941)"/><path d="M3583.65 1343.61 3803.71 1563.68 3773.81 1593.59 3553.74 1373.52Z" fill="#FFFFFF" fill-rule="evenodd" transform="matrix(1.00092 0 0 1 -8.65654 30.2941)"/><path d="M4142.27 1255.17 4362.34 1475.24 4250.94 1586.64 4030.87 1366.56Z" fill="#FFFFFF" fill-rule="evenodd" transform="matrix(1.00092 0 0 1 -8.65654 30.2941)"/><text font-family="Noto Sans JP Black,Noto Sans JP Black_MSFontService,sans-serif" font-weight="900" font-size="550" transform="matrix(0.997457 0 0 0.99654 711.705 1384)">MY HISTORY</text><text font-family="Noto Sans JP Black,Noto Sans JP Black_MSFontService,sans-serif" font-weight="900" font-size="550" transform="matrix(0.997457 0 0 0.99654 4071.89 1384)"> </text><path d="M472.36 1477.87C472.36 1472.37 476.821 1467.9 482.325 1467.9 487.829 1467.9 492.291 1472.37 492.291 1477.87 492.291 1483.37 487.829 1487.83 482.325 1487.83 476.821 1487.83 472.36 1483.37 472.36 1477.87Z" fill="#FFFFFF" fill-rule="evenodd" transform="matrix(1.00092 0 0 1 -8.65654 30.2941)"/><path d="M527.169 1477.87C527.169 1472.37 531.631 1467.9 537.135 1467.9 542.639 1467.9 547.1 1472.37 547.1 1477.87 547.1 1483.37 542.639 1487.83 537.135 1487.83 531.631 1487.83 527.169 1483.37 527.169 1477.87Z" fill="#FFFFFF" fill-rule="evenodd" transform="matrix(1.00092 0 0 1 -8.65654 30.2941)"/><path d="M581.979 1477.87C581.979 1472.37 586.441 1467.9 591.945 1467.9 597.448 1467.9 601.91 1472.37 601.91 1477.87 601.91 1483.37 597.448 1487.83 591.945 1487.83 586.441 1487.83 581.979 1483.37 581.979 1477.87Z" fill="#FFFFFF" fill-rule="evenodd" transform="matrix(1.00092 0 0 1 -8.65654 30.2941)"/><path d="M636.789 1477.87C636.789 1472.37 641.25 1467.9 646.754 1467.9 652.258 1467.9 656.72 1472.37 656.72 1477.87 656.72 1483.37 652.258 1487.83 646.754 1487.83 641.25 1487.83 636.789 1483.37 636.789 1477.87Z" fill="#FFFFFF" fill-rule="evenodd" transform="matrix(1.00092 0 0 1 -8.65654 30.2941)"/><path d="M691.599 1477.87C691.599 1472.37 696.06 1467.9 701.564 1467.9 707.068 1467.9 711.529 1472.37 711.529 1477.87 711.529 1483.37 707.068 1487.83 701.564 1487.83 696.06 1487.83 691.599 1483.37 691.599 1477.87Z" fill="#FFFFFF" fill-rule="evenodd" transform="matrix(1.00092 0 0 1 -8.65654 30.2941)"/><path d="M268.069 1030.42C273.573 1030.42 278.035 1034.89 278.035 1040.39 278.035 1045.89 273.573 1050.35 268.069 1050.35 262.565 1050.35 258.104 1045.89 258.104 1040.39 258.104 1034.89 262.565 1030.42 268.069 1030.42Z" fill="#FFFFFF" fill-rule="evenodd" transform="matrix(1.00092 0 0 1 -8.65654 30.2941)"/><path d="M268.069 1085.23C273.573 1085.23 278.035 1089.7 278.035 1095.2 278.035 1100.7 273.573 1105.16 268.069 1105.16 262.565 1105.16 258.104 1100.7 258.104 1095.2 258.104 1089.7 262.565 1085.23 268.069 1085.23Z" fill="#FFFFFF" fill-rule="evenodd" transform="matrix(1.00092 0 0 1 -8.65654 30.2941)"/><path d="M268.069 1140.04C273.573 1140.04 278.035 1144.51 278.035 1150.01 278.035 1155.51 273.573 1159.97 268.069 1159.97 262.565 1159.97 258.104 1155.51 258.104 1150.01 258.104 1144.51 262.565 1140.04 268.069 1140.04Z" fill="#FFFFFF" fill-rule="evenodd" transform="matrix(1.00092 0 0 1 -8.65654 30.2941)"/><path d="M268.069 1194.85C273.573 1194.85 278.035 1199.32 278.035 1204.82 278.035 1210.32 273.573 1214.78 268.069 1214.78 262.565 1214.78 258.104 1210.32 258.104 1204.82 258.104 1199.32 262.565 1194.85 268.069 1194.85Z" fill="#FFFFFF" fill-rule="evenodd" transform="matrix(1.00092 0 0 1 -8.65654 30.2941)"/><path d="M268.069 1249.66C273.573 1249.66 278.035 1254.13 278.035 1259.63 278.035 1265.13 273.573 1269.59 268.069 1269.59 262.565 1269.59 258.104 1265.13 258.104 1259.63 258.104 1254.13 262.565 1249.66 268.069 1249.66Z" fill="#FFFFFF" fill-rule="evenodd" transform="matrix(1.00092 0 0 1 -8.65654 30.2941)"/><g><g><g><path d="M96.0782 7.77513C84.8593 24.0068 69.4403 49.4169 69.674 64.4706 69.8578 77.2453 84.4965 97.3864 90.009 122.126L85.4211 122.126C80.0278 94.7222 57.3616 59.8429 36.8108 66.1855 12.5271 73.6813 14.672 100.185 23.8513 116.041 28.8359 107.581 34.575 97.5753 48.2409 98.0724 61.1393 98.5496 67.5017 109.887 71.9754 122.126 68.3318 122.126 65.4041 124.755 65.4041 128.025 65.4041 131.296 68.3318 133.926 71.9754 133.926L74.7142 133.926C75.604 142.575 74.2171 151.224 69.1172 152.735 62.5063 154.693 58.6291 150.697 54.4935 143.758 51.8442 150.667 49.1286 170.232 63.7042 174.113 77.6519 177.827 86.3008 162.259 86.6488 133.926L91.8432 133.926C92.0022 135.924 92.0917 137.947 92.0966 139.995 92.1066 155.623 84.1287 166.156 83.8752 172.717 83.6167 179.343 90.6005 186.983 96.113 191.143 101.57 186.983 108.54 179.343 108.281 172.717 108.028 166.156 100.05 155.623 100.06 139.995 100.065 137.947 100.154 135.924 100.313 133.926L105.105 133.926C105.453 162.259 114.122 177.827 128.064 174.113 142.639 170.232 139.909 150.667 137.26 143.758 133.125 150.697 129.247 154.693 122.636 152.735 117.537 151.224 116.15 142.575 117.04 133.926L120.25 133.926C123.889 133.926 126.822 131.296 126.822 128.025 126.822 124.755 123.889 122.126 120.25 122.126L119.778 122.126C124.252 109.887 130.629 98.5496 143.529 98.0724 157.192 97.5753 162.919 107.581 167.899 116.041 177.08 100.185 179.243 73.6813 154.961 66.1855 134.407 59.8429 111.726 94.7222 106.333 122.126L102.147 122.126C107.66 97.3864 122.298 77.2453 122.483 64.4706 122.716 49.4179 107.297 24.0078 96.0782 7.77513Z" fill="#FFFFFF" transform="matrix(1.00364 0 0 1 340.979 1227.34)"/></g></g></g></g></svg>